<svg id="Capa_1" enable-background="new 0 0 512 512" height="512" viewBox="0 0 512 512" width="512" xmlns="http://www.w3.org/2000/svg"><g><circle cx="196" cy="195" r="15"/><circle cx="226" cy="377" r="15"/><circle cx="316" cy="195" r="15"/><circle cx="286" cy="377" r="15"/><path d="m15 180h30c20.256 0 38.649-8.085 52.157-21.18 6.178 71.694 19.334 224.964 19.52 226.384 3.284 29.897 23.765 53.918 50.738 62.932 12.622 37.856 48.297 63.864 88.585 63.864 40.287 0 75.961-26.007 88.584-63.864 27.092-9.053 47.465-33.156 50.739-62.934.203-1.548 12.315-148.319 18.803-226.548 14.346 13.763 33.088 21.346 52.874 21.346h30c8.284 0 15-6.716 15-15v-30c0-32.55-21.172-59.668-49.382-70.196 12.524-13.787 19.382-31.296 19.382-49.804 0-8.284-6.716-15-15-15s-15 6.716-15 15c0 24.393-21.065 45-46 45h-301c-24.813 0-45-20.187-45-45 0-8.284-6.716-15-15-15s-15 6.716-15 15c0 19.049 7.151 36.452 18.894 49.695-28.522 10.625-48.894 38.127-48.894 70.305v30c0 8.284 6.716 15 15 15zm406-90h15c24.935 0 46 20.608 46 45v15h-15c-24.935 0-46-20.608-46-45zm-165 392c-22.299 0-42.525-11.736-53.876-30.01h107.752c-11.352 18.275-31.577 30.01-53.876 30.01zm64.792-60h-129.584c-21.096 0-39.283-14.965-43.881-35.087 25.444-34.485 65.637-54.913 108.673-54.913 43.037 0 83.231 20.429 108.676 54.917-4.586 20.105-22.779 35.083-43.884 35.083zm-49.792-332h118.707l-12.418 150h-61.289c-24.813 0-45-20.187-45-45zm-30 0v105c0 41.355 33.645 75 75 75h58.804l-6.316 76.297c-30.224-28.181-70.232-44.297-112.488-44.297-42.305 0-82.356 16.153-112.592 44.394l-22.062-256.394zm-211 45c0-24.813 20.187-45 45-45h15v15c0 24.813-20.187 45-45 45h-15z"/></g></svg>